<svg version="1.1" id="Layer_1" xmlns="http://www.w3.org/2000/svg" x="0" y="0" viewBox="0 0 63 63" xml:space="preserve"><style>.st0{fill:#ee2b2f}</style><g id="Boxing"><path d="M25.4 16.5c1.9 0 3.5-1.6 3.5-3.5s-1.6-3.5-3.5-3.5-3.5 1.6-3.5 3.5 1.5 3.5 3.5 3.5zm0-6c1.4 0 2.5 1.1 2.5 2.5s-1.1 2.5-2.5 2.5-2.5-1.1-2.5-2.5 1.1-2.5 2.5-2.5zM42.9 22v-.5h-8.2c-.1.1-.1.2-.2.3l-.3.2-.5.5h9.7c-.3 0-.5-.2-.5-.5zm-7.1-3.5h7.1V18c0-.3.2-.5.5-.5h-7.8c0 .2.1.3.1.5s.1.3.1.5z"/><path class="st0" d="M45.4 17.5h-2c-.3 0-.5.2-.5.5v4c0 .3.2.5.5.5H45c.2 1.1 1.2 2 2.4 2 1.4 0 2.5-1.1 2.5-2.5 0-2.5-2-4.5-4.5-4.5zm.5 4.9c0-.1-.1-.3-.1-.4v-.1c0-.2-.2-.4-.5-.4h-1.5v-3h1.8c.5 0 1 .2 1.4.4.3.2.5.3.8.5.6.6 1 1.5 1 2.5 0 .8-.7 1.5-1.5 1.5-.6.1-1.2-.3-1.4-1z"/><path d="M32.3 23.2l-.3-.4-2.1 2.1-.5.5-.5.5-.8.8c-.6.6-1.5.6-2.1 0l-4.1-4.1-.5-.5-.1-.1-.9-.9c-.1-.1-.2-.3-.3-.5-.1-.1-.1-.3-.1-.5V20c0-.8.7-1.5 1.5-1.5h9.2c-.1-.2-.2-.3-.2-.5-.1-.2-.1-.3-.1-.5h-8.8c-1.4 0-2.5 1.1-2.5 2.5v.6c0 .1.1.2.1.3 0 .1 0 .1.1.2 0 .1.1.2.1.3l.1.1c.1.1.1.2.2.2l.1.1L21 23v20l-6.3 6.3c-1 1-1 2.6 0 3.5.5.5 1.1.7 1.8.7.6 0 1.3-.2 1.8-.7l7.1-7.1c.5-.5.7-1.1.7-1.8v-7.5h.5l5.6 5.6v9c0 1.4 1.1 2.5 2.5 2.5s2.5-1.1 2.5-2.5V41c0-.7-.3-1.3-.7-1.8L29.9 33v-6.7l3.2-3.2c-.1.1-.2.1-.3.1-.2.1-.4.1-.5 0zm3.6 27.9c0 .8-.7 1.5-1.5 1.5s-1.5-.7-1.5-1.5v-9.2c0-.1-.1-.3-.1-.4l-5.9-5.9c-.1-.1-.2-.1-.4-.1h-1.2c-.3 0-.5.2-.5.5v8c0 .4-.2.8-.4 1.1l-7.1 7.1c-.6.6-1.5.6-2.1 0-.6-.6-.6-1.5 0-2.1l6.5-6.5c.1-.1.1-.2.1-.4V32.5h7v.7c0 .1.1.3.1.4l6.5 6.5c.3.3.4.7.4 1.1v9.9zm-7-19.6h-7V24l3.4 3.4c.5.5 1.1.7 1.8.7.6 0 1.3-.2 1.8-.7l.1-.1v4.2z"/><path d="M25.3 20.4c-.2-.2-.5-.2-.7 0-.1.1-.1.2-.1.3 0 .1 0 .3.1.4l2.1 2.1c.2.2.5.2.7 0l2.5-2.5-.4-.4c-.1-.1-.1-.2-.1-.4 0-.1.1-.2.1-.3L27 22.1l-1.7-1.7z"/><path class="st0" d="M34.5 21.8c.1-.1.1-.2.2-.3l.1-.1c.7-.8 1-1.9 1-2.9V18c0-.2-.1-.3-.1-.5-.2-.8-.6-1.5-1.2-2.1-1-1-2.6-1-3.5 0-.6.6-.8 1.4-.7 2.1 0 .2.1.3.1.5.1.2.1.3.2.5v.1l-1.1 1.1c-.1.1-.1.2-.1.3 0 .1.1.3.1.4l.4.4.8.8.5.5.5.5.3.3.4.4c.1.1.2.1.4.1.1 0 .2 0 .3-.1l.7-.7.5-.5.2-.3zm-2.4-.3L30.6 20l1.1-1.1c.1-.1.1-.2.1-.4v-.1c0-.1 0-.1-.1-.2v-.1c-.1-.1-.1-.2-.2-.2l-.1-.1c-.1-.1-.1-.2-.1-.4-.1-.5 0-1 .4-1.4.6-.6 1.5-.6 2.1 0 .4.4.7.9.8 1.4.1.2.1.3.1.5v.6c0 .3-.1.6-.1.9-.2.6-.4 1.1-.9 1.5l-.4.4-.5.7-.1.1-.1-.1-.5-.5z"/></g></svg>