<svg xmlns="http://www.w3.org/2000/svg" viewBox="0 0 63 63"><path d="M43.2 21.2c.9 0 1.8-.4 2.5-1s1-1.5 1-2.5c0-.9-.4-1.8-1-2.5-1.4-1.4-3.6-1.4-4.9 0-1.4 1.4-1.4 3.6 0 4.9.5.7 1.4 1.1 2.4 1.1zm1.7-5.3c.5.5.7 1.1.7 1.8s-.3 1.3-.7 1.8c-.9.9-2.6.9-3.5 0-1-1-1-2.6 0-3.5.5-.5 1.1-.7 1.8-.7s1.2.2 1.7.6z"/><path d="M47.8 20.9l-3.9 3.9-3.9-3.9-5.6-5.7c-1-1-2.6-1-3.5 0l-5.7 5.7c-1 1-1 2.6 0 3.5.5.5 1.1.7 1.8.7s1.3-.3 1.8-.7l3.9-3.9 1.4 1.4-6.7 6.7L26 30c-.6.6-.8 1.4-.7 2.1L12.4 44.9c-1 1-1 2.6 0 3.5.5.5 1.1.7 1.8.7.6 0 1.3-.2 1.8-.7L28.4 36l3.5 3.5-5.3 5.3c-1 1-1 2.6 0 3.5.5.5 1.1.7 1.8.7.6 0 1.3-.2 1.8-.7l7.1-7.1c1-1 1-2.6 0-3.5l-4.6-4.6 6.4-6.4 3.2 3.2c.5.5 1.1.7 1.8.7s1.3-.3 1.8-.7l5.7-5.7c.5-.5.7-1.1.7-1.8s-.3-1.3-.7-1.8c-1.3-.7-2.9-.7-3.8.3zm-5 8.5l-4.9-5s-.1 0-.1-.1c-.2-.1-.4-.1-.6.1-.2.2-.2.5 0 .7l1.1 1.1-6.4 6.4-3.6-3.6 7.4-7.4c.9-.9 2.6-.9 3.5 0l.1.1 4.2 4.2c.2.2.5.2.7 0l4.2-4.2c.6-.6 1.5-.6 2.1 0 .3.3.4.7.4 1.1 0 .4-.2.8-.4 1.1l-5.7 5.7c-.3.3-.6.4-1.1.4-.2-.2-.6-.3-.9-.6zM27.2 47.8c-.3-.3-.4-.7-.4-1.1s.2-.8.4-1.1l5.7-5.7c.1-.1.1-.2.1-.4s-.1-.3-.1-.4l-6.4-6.4c-.1-.1-.2-.3-.3-.4-.1-.2-.1-.4-.1-.6 0-.4.1-.8.4-1.1l1.1-1.1 8.8 8.8c.6.6.6 1.5 0 2.1l-7.1 7.1c-.5.9-1.5.9-2.1.3zm-14.1 0c-.6-.6-.6-1.5 0-2.1l12.4-12.4c.1.1.2.3.3.4l1.8 1.8-12.4 12.3c-.6.6-1.5.6-2.1 0zm19.1-28.3L28 23.7c-.6.6-1.6.6-2.1 0-.6-.6-.6-1.5 0-2.1l5.7-5.7c.6-.6 1.5-.6 2.1 0l4 4c-.9 0-1.9.3-2.6 1l-.3.3-1.8-1.8c-.3-.1-.6-.1-.8.1z"/></svg>