<svg xmlns="http://www.w3.org/2000/svg" viewBox="0 0 63 63"><path d="M54.8 5.5s-3.4 1-3.6 1c-.4.1-.7.5-.7 1s.3.8.7 1c.2 0 3.6 1 3.6 1h.1c.1 0 .2 0 .3-.1.1-.1.2-.2.2-.4V6c0-.2-.1-.3-.2-.4-.1-.1-.3-.1-.4-.1zm-.4 2.9c-2.1-.6-2.8-.8-3-.8.2-.1.9-.2 3-.8v1.6z" fill="#ee2b2f"/><path d="M42.8 16.6l-4.9 4.9h-15c-.7 0-1.3.3-1.8.7l-3.9 3.9-3.9-3.9-.2-.2s-.1 0-.1-.1c-.1-.1-.2-.1-.2-.1-.1 0-.1-.1-.2-.1s-.2-.1-.2-.1c-.1 0-.1-.1-.2-.1h-1c-.1 0-.2.1-.2.1-.1 0-.1 0-.2.1-.1 0-.1.1-.2.1s-.1.1-.2.1c-.3.1-.4.2-.4.2l-.1.1c-.1.1-.2.2-.2.3-.1.1-.2.3-.3.5-.1.1-.1.3-.1.4v.1c0 .2-.1.3-.1.5s0 .3.1.5v.1c0 .1.1.3.1.4.1.2.2.3.3.5l.1.1.2.2 1.3 1.3v-.6c.2 0 .3.1.5.1h.5c1-.2 1.8-1.1 2-2.1l2.8 2.8c.1.1.2.1.4.1s.3-.1.4-.1l4.2-4.2c.3-.3.7-.4 1.1-.4h15.2c.1 0 .3-.1.4-.1l5.1-5.1c.6-.6 1.5-.6 2.1 0 .3.3.4.7.4 1.1s-.2.8-.4 1.1l-6 5.4c-.3.3-.7.4-1.1.4h-8c-.3 0-.5.2-.5.5v9.5h-7v-8.7c0-.2-.1-.4-.3-.5-.2-.1-.4 0-.5.1l-4.2 4.2c-.6.6-1.6.6-2.1 0l-4.1-4.1V28l3.4 3.4c.9.9 2.6.9 3.5 0l3.4-3.4v9L9 50.4c-1 1-1 2.6 0 3.5 1 1 2.6 1 3.5 0l13.4-13.4h.5V47l-6.3 6.3c-.5.5-.7 1.1-.7 1.8s.3 1.3.7 1.8c.5.5 1.1.7 1.8.7s1.3-.3 1.8-.7l7.1-7.1c.5-.5.7-1.1.7-1.8V26.5H39c.7 0 1.3-.3 1.8-.7l5.7-5.7c.5-.5.7-1.1.7-1.8s-.3-1.3-.7-1.8c-1.1-.9-2.7-.9-3.7.1zm-30.7 8.8c-.2.1-.3.1-.5.1s-.3 0-.5-.1c-.3-.1-.5-.3-.7-.5 0-.1-.1-.1-.1-.2s0-.1-.1-.2v-.8c0-.1 0-.2.1-.2.1-.2.2-.3.3-.5.1-.1.3-.2.5-.3h.1c.2-.1.3-.1.5-.1s.3 0 .5.1.3.2.5.3c.3.3.4.6.4 1.1 0 .6-.4 1.1-1 1.3zM30.4 48c0 .4-.2.8-.4 1.1l-7.1 7.1c-.6.6-1.6.6-2.1 0-.3-.3-.4-.7-.4-1.1s.2-.8.4-1.1l6.5-6.5c.1-.1.1-.2.1-.4V40c0-.3-.2-.5-.5-.5h-1.2c-.1 0-.3.1-.4.1L11.8 53.2c-.6.6-1.5.6-2.1 0-.6-.6-.6-1.5 0-2.1l13.6-13.6c.1-.1.1-.2.1-.4v-.7h7V48z"/><path d="M11.4 21.5h.7v-5.1c1.7-.3 3-2.2 3-4.4 0-2.5-1.6-4.5-3.5-4.5s-3.5 2-3.5 4.5c0 2.3 1.3 4.1 3 4.4v5.1h.3zM9.1 12c0-1.9 1.1-3.5 2.5-3.5s2.5 1.6 2.5 3.5-1.1 3.5-2.5 3.5-2.5-1.6-2.5-3.5zm3 14.6v-.2h-.5c-.2 0-.3 0-.5-.1V28c0 .3.2.5.5.5s.5-.2.5-.5v-1.4z" fill="#fcb019"/><path d="M26.9 20.5c1.9 0 3.5-1.6 3.5-3.5s-1.6-3.5-3.5-3.5-3.5 1.6-3.5 3.5 1.6 3.5 3.5 3.5zm0-6c1.4 0 2.5 1.1 2.5 2.5s-1.1 2.5-2.5 2.5-2.5-1.1-2.5-2.5 1.1-2.5 2.5-2.5z"/></svg>