<svg xmlns="http://www.w3.org/2000/svg" viewBox="0 0 63 63"><path d="M27.7 18.1c1.9 0 3.5-1.6 3.5-3.5s-1.6-3.5-3.5-3.5-3.5 1.6-3.5 3.5 1.6 3.5 3.5 3.5zm0-6c1.4 0 2.5 1.1 2.5 2.5s-1.1 2.5-2.5 2.5-2.5-1.1-2.5-2.5 1.1-2.5 2.5-2.5z"/><path d="M47.1 24c-.6 4.6-2.6 8.8-5.9 12.1-.2.2-.2.5 0 .7.1.1.2.1.4.1s.3 0 .4-.1c3.5-3.5 5.6-7.9 6.1-12.7h-.3c-.3 0-.5-.1-.7-.1zm.6-4.9h.3c-.5-4.8-2.7-9.3-6.1-12.7-.2-.2-.5-.2-.7 0s-.2.5 0 .7c3.3 3.3 5.3 7.5 5.8 12v.1c.3-.1.5-.1.7-.1z" fill="#ee2b2f"/><path d="M48.1 19.1h-.3c-.2 0-.4 0-.7.1v-.1H15.7c-1.4 0-2.5 1.1-2.5 2.5s1.1 2.5 2.5 2.5h7.5v11l-7.5 18c-.5 1.3.1 2.7 1.4 3.3.3.1.6.2 1 .2 1 0 1.9-.6 2.3-1.5l7-16.9h.7l7 16.9c.5 1.3 2 1.9 3.3 1.4 1.3-.5 1.9-2 1.4-3.3l-7.5-18v-11h14.8v-.1c.2.1.4.1.7.1h.3c1.2-.2 2.2-1.2 2.2-2.5s-1-2.4-2.2-2.6zm.1 3.9c-.1 0-.3.1-.4.1-.2 0-.4 0-.6-.1-.5-.2-.9-.8-.9-1.4s.4-1.2.9-1.4c.2-.1.4-.1.6-.1.2 0 .3 0 .4.1.6.2 1.1.8 1.1 1.4s-.5 1.2-1.1 1.4zM36 54.6l-7.1-17.2c-.1-.2-.3-.3-.5-.3h-1.3c-.2 0-.4.1-.5.3l-7.1 17.2c-.3.8-1.2 1.1-2 .8-.8-.3-1.1-1.2-.8-2l7.5-18.1V34h7v1.3l7.5 18.1c.3.8 0 1.6-.8 2-.7.4-1.6 0-1.9-.8zm-21.8-33c0-.8.7-1.5 1.5-1.5h8c.8 0 1.5.7 1.5 1.5s-.7 1.5-1.5 1.5h-8c-.8 0-1.5-.7-1.5-1.5zm17.5 1.5c-.3 0-.5.2-.5.5v9.5h-7V24c1.1-.2 2-1.2 2-2.4 0-.6-.2-1.1-.5-1.5h20c-.3.4-.5.9-.5 1.5s.2 1.1.5 1.5h-14z"/></svg>